<svg width="153" height="115" viewBox="0 0 153 115" fill="none" xmlns="http://www.w3.org/2000/svg">
<path d="M55.5026 94.1901C55.8366 95.5556 57.214 96.3904 58.5795 96.0535C61.3045 95.3827 64.0593 97.0463 64.7331 99.7743C65.067 101.14 66.4444 101.975 67.8099 101.638L132.053 85.8869C132.709 85.7259 133.276 85.3115 133.624 84.7361C133.973 84.1577 134.081 83.466 133.92 82.8101C133.255 80.0881 134.918 77.3422 137.637 76.6654C138.293 76.5044 138.857 76.09 139.209 75.5146C139.557 74.9392 139.665 74.2445 139.504 73.5886L134.656 53.8219C134.495 53.166 134.081 52.6025 133.502 52.2507C132.924 51.8989 132.232 51.7945 131.576 51.9555C128.848 52.6233 126.093 50.9538 125.426 48.2258C125.265 47.5699 124.85 47.0064 124.272 46.6546C123.693 46.3028 123.002 46.1984 122.346 46.3594L58.1114 62.1191C56.7459 62.4531 55.9111 63.8305 56.248 65.1959C56.57 66.5078 56.3583 67.8911 55.6577 69.0449C54.957 70.1987 53.8301 71.0276 52.5183 71.3496C51.8623 71.5106 51.2989 71.925 50.9471 72.5034C50.5952 73.0818 50.4909 73.7735 50.6519 74.4294L55.4997 94.1901H55.5026ZM101.118 87.9292L100.474 85.3026C103.536 83.2484 104.69 79.298 103.22 75.9171C101.747 72.5362 98.0712 70.6907 94.4816 71.5314C93.4828 71.7759 92.4333 71.3943 91.8251 70.5655C91.2169 69.7366 91.1662 68.6216 91.6999 67.7421C92.2336 66.8626 93.2443 66.3915 94.2609 66.5465C95.2776 66.7016 96.1005 67.4559 96.3449 68.4576C96.5059 69.1135 96.9204 69.677 97.4987 70.0288C98.0771 70.3806 98.7688 70.485 99.4247 70.324C103.494 69.3222 100.57 62.1072 94.6396 61.502L94.0016 58.8754C100.441 58.8754 105.823 64.379 107.442 70.9769C109.198 78.1502 106.413 85.1684 101.118 87.9292ZM83.8737 65.4941C84.9858 63.1924 86.7955 61.2992 89.0465 60.0858L89.6845 62.6975C86.5779 64.7308 85.3883 68.708 86.873 72.1128C88.3548 75.5176 92.0785 77.3571 95.6831 76.4657C96.6818 76.2212 97.7313 76.6028 98.3395 77.4316C98.9477 78.2605 98.9984 79.3755 98.4647 80.255C97.9311 81.1346 96.9204 81.6056 95.9037 81.4506C94.887 81.2955 94.0642 80.5413 93.8197 79.5395C93.6587 78.8836 93.2443 78.3201 92.6659 77.9683C92.0875 77.6165 91.3958 77.5121 90.7399 77.6731C86.6375 78.6898 89.6099 85.8988 95.5251 86.5011L96.1661 89.1128C85.8623 89.1277 78.8172 75.4907 83.8767 65.4881L83.8737 65.4941ZM130.261 57.1938L134.051 72.6435C130.795 74.4025 128.747 77.7834 128.693 81.4834L110.122 86.036C115.933 75.7889 112.755 62.79 102.874 56.3799L121.413 51.8333C123.172 55.092 126.559 57.1432 130.261 57.1938ZM61.4923 66.5286L80.0337 61.982C74.211 72.238 77.419 85.2549 87.3381 91.6351L68.7669 96.1907C67.0139 92.923 63.624 90.8688 59.9151 90.8211L56.1258 75.3715C59.3815 73.6125 61.4297 70.2315 61.4833 66.5316H61.4923V66.5286Z" fill="white"/>
<path d="M8.58444 55.4348L30.6379 95.5496C31.9766 98.0004 34.5495 99.5239 37.3431 99.5209C39.9101 99.5209 41.1951 98.4833 45.4853 96.1101L48.6426 108.981C49.4834 112.395 52.5453 114.792 56.0604 114.786C57.4139 114.786 51.7344 116.059 146.832 92.7501C148.8 92.2671 150.493 91.0268 151.543 89.2947C152.592 87.5625 152.911 85.4874 152.428 83.5197L141.522 39.046C140.521 34.9525 136.388 32.4482 132.295 33.4499L120.083 36.4432L102.216 3.9608C100.182 0.26684 95.5431 -1.08374 91.8432 0.940639L83.7547 5.38592H43.2493C41.845 5.38592 40.7061 6.52482 40.7061 7.92906C40.7061 9.3333 41.845 10.4722 43.2493 10.4722H74.5004L65.2461 15.5615H15.2658C13.8615 15.5615 12.7226 16.7004 12.7226 18.1046C12.7226 19.5088 13.8615 20.6477 15.2658 20.6477H55.9918L37.4832 30.8233H17.8089C16.4047 30.8233 15.2658 31.9622 15.2658 33.3664C15.2658 34.7707 16.4047 35.9096 17.8089 35.9096H28.2409L11.5867 45.0685C7.92257 47.1197 6.58392 51.7349 8.58444 55.4288V55.4348ZM32.0571 51.2489L48.7142 42.09C47.6617 45.9659 47.7512 50.0623 48.9676 53.8875L43.3417 55.2678C41.374 55.7508 39.6805 56.9911 38.6311 58.7233C37.5816 60.4555 37.2626 62.5306 37.7456 64.4983L40.2887 74.9302C39.129 74.7931 37.9573 74.8617 36.8214 75.127L29.1442 61.183C31.8454 58.6458 32.9574 54.8475 32.0571 51.2519V51.2489ZM101.813 40.9273L83.7815 45.3487C81.7154 38.3871 76.3339 32.9013 69.4141 30.701L86.1159 21.5153C88.6501 24.2165 92.4484 25.3256 96.0381 24.4162L103.715 38.3543C102.946 39.1056 102.299 39.9732 101.798 40.9273H101.81H101.813ZM53.9495 52.6591C52.0563 47.5609 53.2429 41.8306 57.0025 37.9041L58.2934 40.2505C56.8743 41.8217 56.1766 43.9176 56.3734 46.0255C56.5702 48.1333 57.6405 50.0653 59.328 51.3473L53.9495 52.6591ZM73.1915 47.9425C70.8183 46.3117 67.7326 46.1507 65.2043 47.5281C63.976 48.1751 62.4555 47.7219 61.7877 46.5055C61.1198 45.2891 61.5462 43.7626 62.7506 43.0709C63.341 42.7459 64.0386 42.6684 64.6886 42.8563C65.3385 43.0441 65.8841 43.4823 66.2091 44.0756C66.6384 44.8896 67.4732 45.4083 68.3915 45.4322C69.3097 45.456 70.1714 44.982 70.6424 44.1949C71.1135 43.4078 71.1224 42.4239 70.6663 41.6249C69.113 38.7956 65.9348 37.2631 62.7536 37.8087L61.4806 35.4743C68.8596 33.5006 76.3399 39.1086 78.8503 46.5711L73.1915 47.9455V47.9425ZM133.505 38.3931C134.871 38.0592 136.245 38.894 136.582 40.2565L147.488 84.7331C147.822 86.0986 146.987 87.473 145.625 87.8099L56.6686 109.622C55.3031 109.956 53.9287 109.121 53.5918 107.759L42.6858 63.2789C42.5248 62.623 42.6321 61.9313 42.9809 61.3529C43.3298 60.7745 43.8962 60.3631 44.5521 60.2021L133.505 38.3901V38.3931ZM14.0494 49.5197L94.288 5.40381C94.8813 5.07585 95.5789 4.99535 96.2318 5.18318C96.8848 5.37101 97.4304 5.81226 97.7554 6.40854L114.961 37.7014L109.52 39.0341C109.52 38.0472 110.152 39.5111 99.416 20.0127C99.088 19.4194 98.5395 18.9841 97.8895 18.7963C95.9278 18.2298 95.1884 20.3377 92.1056 19.4403C90.7997 19.0646 89.6996 18.1821 89.0526 16.9896C88.7306 16.3963 88.185 15.955 87.5351 15.7642C86.8851 15.5734 86.1875 15.6479 85.5942 15.9729L27.6386 47.8501C26.4073 48.5209 25.9541 50.0623 26.622 51.2936C27.9725 53.7563 27.0721 56.845 24.6125 58.1986C24.0162 58.5206 23.575 59.0691 23.3841 59.7191C23.1933 60.369 23.2679 61.0697 23.5958 61.663L33.4166 79.4948C34.0874 80.7291 35.6318 81.1822 36.8661 80.5114C38.3657 79.7094 40.1695 79.7243 41.6542 80.5502L44.2123 90.9821L38.5476 94.1096C37.3103 94.7864 35.76 94.3362 35.0742 93.1049L13.0446 52.9871C12.7167 52.3938 12.6362 51.6961 12.824 51.0432C13.0118 50.3903 13.4531 49.8447 14.0494 49.5197Z" fill="white"/>
<path d="M17.8088 114.785H43.2491C44.6534 114.785 45.7923 113.647 45.7923 112.242C45.7923 110.838 44.6534 109.699 43.2491 109.699H17.8088C16.4045 109.699 15.2656 110.838 15.2656 112.242C15.2656 113.647 16.4045 114.785 17.8088 114.785Z" fill="white"/>
<path d="M2.54314 114.785H7.6324C9.03664 114.785 10.1755 113.647 10.1755 112.242C10.1755 110.838 9.03664 109.699 7.6324 109.699H2.54314C1.1389 109.699 0 110.838 0 112.242C0 113.647 1.1389 114.785 2.54314 114.785Z" fill="white"/>
<path d="M2.54314 35.9154H7.6324C9.03664 35.9154 10.1755 34.7765 10.1755 33.3722C10.1755 31.968 9.03664 30.8291 7.6324 30.8291H2.54314C1.1389 30.8291 0 31.968 0 33.3722C0 34.7765 1.1389 35.9154 2.54314 35.9154Z" fill="white"/>
<path d="M7.63298 99.5209H22.8978C24.302 99.5209 25.4409 98.382 25.4409 96.9777C25.4409 95.5735 24.302 94.4346 22.8978 94.4346H7.63298C6.22874 94.4346 5.08984 95.5735 5.08984 96.9777C5.08984 98.382 6.22874 99.5209 7.63298 99.5209Z" fill="white"/>
<path d="M17.8087 81.7096C17.8087 80.3054 16.6698 79.1665 15.2656 79.1665H5.09002C3.68577 79.1665 2.54688 80.3054 2.54688 81.7096C2.54688 83.1139 3.68577 84.2528 5.09002 84.2528H15.2656C16.6698 84.2528 17.8087 83.1139 17.8087 81.7096Z" fill="white"/>
<path d="M2.54314 68.9916H7.6324C9.03664 68.9916 10.1755 67.8527 10.1755 66.4484C10.1755 65.0442 9.03664 63.9053 7.6324 63.9053H2.54314C1.1389 63.9053 0 65.0442 0 66.4484C0 67.8527 1.1389 68.9916 2.54314 68.9916Z" fill="white"/>
</svg>
