<svg width="152" height="152" viewBox="0 0 152 152" fill="none" xmlns="http://www.w3.org/2000/svg">
<path d="M76 0C44.5194 0 19 25.5194 19 57C19 70.4853 24.9422 82.3436 31.5186 92.625L72.124 149.995C73.0146 151.254 74.461 152 76 152C77.539 152 78.9854 151.254 79.876 149.995L120.481 92.625C126.766 84.1653 133 70.4853 133 57C133 25.5194 107.481 0 76 0ZM76 90.25C57.6365 90.25 42.75 75.3635 42.75 57C42.75 38.6365 57.6365 23.75 76 23.75C94.3635 23.75 109.25 38.6365 109.25 57C109.25 75.3635 94.3635 90.25 76 90.25Z" fill="#22244E"/>
<path d="M76 28.5C60.2609 28.5 47.5 41.2609 47.5 57C47.5 72.7391 60.2609 85.5 76 85.5C91.7391 85.5 104.5 72.7391 104.5 57C104.5 41.2609 91.7391 28.5 76 28.5ZM76 80.75C62.8829 80.75 52.25 70.1147 52.25 57C52.25 43.8853 62.8829 33.25 76 33.25C89.1171 33.25 99.75 43.8853 99.75 57C99.75 70.1147 89.1171 80.75 76 80.75Z" fill="#22244E"/>
</svg>
