<svg width="60" height="61" viewBox="0 0 60 61" fill="none" xmlns="http://www.w3.org/2000/svg">
<circle cx="30" cy="30.5" r="30" fill="white"/>
<path d="M29.7031 42.8906C28.2969 42.8906 26.9688 42.6198 25.7188 42.0781C24.4688 41.5365 23.4271 40.7396 22.5938 39.6875C21.7708 38.6354 21.2917 37.3438 21.1562 35.8125L25.2969 34.8438C25.3698 36.2604 25.7708 37.4271 26.5 38.3438C27.2292 39.2604 28.2917 39.7188 29.6875 39.7188C30.5833 39.7188 31.3542 39.5104 32 39.0938C32.6458 38.6667 33.1458 38.0885 33.5 37.3594C33.8646 36.6198 34.0469 35.7812 34.0469 34.8438C34.0469 33.4479 33.651 32.3594 32.8594 31.5781C32.0781 30.7865 31.0469 30.3906 29.7656 30.3906C28.7448 30.3906 27.9323 30.6354 27.3281 31.125C26.724 31.6042 26.2604 32.1875 25.9375 32.875L21.8594 32.5469L22.875 20H36.8125V23.2812H26.1719L25.5938 30.75L24.8906 30.5C25.474 29.5312 26.2708 28.7656 27.2812 28.2031C28.2917 27.6302 29.4792 27.3438 30.8438 27.3438C32.3542 27.3438 33.6562 27.6615 34.75 28.2969C35.8438 28.9323 36.6875 29.8073 37.2812 30.9219C37.875 32.0365 38.1719 33.3073 38.1719 34.7344C38.1719 36.4531 37.776 37.9219 36.9844 39.1406C36.2031 40.3594 35.1667 41.2917 33.875 41.9375C32.5938 42.5729 31.2031 42.8906 29.7031 42.8906Z" fill="black"/>
</svg>
