<svg width="152" height="152" viewBox="0 0 152 152" fill="none" xmlns="http://www.w3.org/2000/svg">
<g clip-path="url(#clip0_1783_3552)">
<path d="M73.3943 130.286H10.8571V54.2857H119.429V70.8971C119.429 73.8829 121.871 76.3257 124.857 76.3257C127.843 76.3257 130.286 73.8829 130.286 70.8971V21.7143C130.286 15.7429 125.4 10.8571 119.429 10.8571H103.143V5.42857C103.143 2.44286 100.7 0 97.7143 0C94.7286 0 92.2857 2.44286 92.2857 5.42857V10.8571H70.5714V5.42857C70.5714 2.44286 68.1286 0 65.1429 0C62.1572 0 59.7143 2.44286 59.7143 5.42857V10.8571H38V5.42857C38 2.44286 35.5571 0 32.5714 0C29.5857 0 27.1429 2.44286 27.1429 5.42857V10.8571H10.8571C4.88572 10.8571 0 15.7429 0 21.7143V130.286C0 136.257 4.88572 141.143 10.8571 141.143H73.3943C76.38 141.143 78.8229 138.7 78.8229 135.714C78.8229 132.729 76.38 130.286 73.3943 130.286ZM10.8571 21.7143H27.1429V27.1429C27.1429 30.1286 29.5857 32.5714 32.5714 32.5714C35.5571 32.5714 38 30.1286 38 27.1429V21.7143H59.7143V27.1429C59.7143 30.1286 62.1572 32.5714 65.1429 32.5714C68.1286 32.5714 70.5714 30.1286 70.5714 27.1429V21.7143H92.2857V27.1429C92.2857 30.1286 94.7286 32.5714 97.7143 32.5714C100.7 32.5714 103.143 30.1286 103.143 27.1429V21.7143H119.429V43.4286H10.8571V21.7143Z" fill="white"/>
<path d="M75.9983 81.4288C78.984 81.4288 81.4269 78.9859 81.4269 76.0002C81.4269 73.0145 78.984 70.5716 75.9983 70.5716H70.5698C70.5698 67.5859 68.1269 65.1431 65.1412 65.1431C62.1555 65.1431 59.7126 67.5859 59.7126 70.5716C53.7412 70.5716 48.8555 75.4574 48.8555 81.4288V86.8574C48.8555 92.8288 53.7412 97.7145 59.7126 97.7145H70.5698V103.143H54.284C51.2983 103.143 48.8555 105.586 48.8555 108.572C48.8555 111.557 51.2983 114 54.284 114H59.7126C59.7126 116.986 62.1555 119.429 65.1412 119.429C68.1269 119.429 70.5698 116.986 70.5698 114C76.5412 114 81.4269 109.114 81.4269 103.143V97.7145C81.4269 91.7431 76.5412 86.8574 70.5698 86.8574H59.7126V81.4288H75.9983Z" fill="white"/>
<path d="M119.428 86.8569C101.459 86.8569 86.8564 101.46 86.8564 119.428C86.8564 137.397 101.459 152 119.428 152C137.396 152 151.999 137.397 151.999 119.428C151.999 101.46 137.396 86.8569 119.428 86.8569ZM119.428 141.143C107.431 141.143 97.7136 131.426 97.7136 119.428C97.7136 107.431 107.431 97.7141 119.428 97.7141C131.425 97.7141 141.142 107.431 141.142 119.428C141.142 131.426 131.425 141.143 119.428 141.143Z" fill="white"/>
<path d="M130.285 114H124.856V108.572C124.856 105.586 122.413 103.143 119.428 103.143C116.442 103.143 113.999 105.586 113.999 108.572V119.429C113.999 122.414 116.442 124.857 119.428 124.857H130.285C133.27 124.857 135.713 122.414 135.713 119.429C135.713 116.443 133.27 114 130.285 114Z" fill="white"/>
</g>
<defs>
<clipPath id="clip0_1783_3552">
<rect width="152" height="152" fill="white"/>
</clipPath>
</defs>
</svg>
