<svg width="152" height="152" viewBox="0 0 152 152" fill="none" xmlns="http://www.w3.org/2000/svg">
<path d="M51.8174 67.7838C51.8174 67.7838 51.8176 51.5225 51.8174 41.7657C51.8171 30.0562 61.4882 19 75.9991 19C90.51 19 100.18 30.0562 100.18 41.7657C100.18 51.5225 100.18 67.7838 100.18 67.7838" stroke="#22244E" stroke-width="5" stroke-linecap="round" stroke-linejoin="round"/>
<path fill-rule="evenodd" clip-rule="evenodd" d="M28.5003 72.1569C28.5001 83.1686 28.4997 106.172 28.5004 121.592C28.5013 138.644 54.8704 142.5 76.0006 142.5C97.1305 142.5 123.5 138.644 123.5 121.592V72.1569C123.5 68.659 120.665 65.8394 117.167 65.8394H34.8336C31.3359 65.8394 28.5004 68.659 28.5003 72.1569ZM66.5 101.351C66.5 104.366 67.8104 107.074 69.8928 108.938V118.768C69.8928 122.266 72.7282 125.102 76.2261 125.102H77.1311C80.629 125.102 83.4645 122.266 83.4645 118.768V108.938C85.5469 107.074 86.8572 104.366 86.8572 101.351C86.8572 95.7295 82.3004 91.1727 76.6789 91.1727C71.0568 91.1727 66.5 95.7295 66.5 101.351Z" fill="#22244E"/>
</svg>
