<svg width="60" height="61" viewBox="0 0 60 61" fill="none" xmlns="http://www.w3.org/2000/svg">
<circle cx="30" cy="30.5" r="30" fill="white"/>
<path d="M29.5156 42.8906C27.9948 42.8906 26.6042 42.6146 25.3438 42.0625C24.0833 41.5104 23.0521 40.7031 22.25 39.6406C21.4583 38.5677 21.0052 37.2708 20.8906 35.75L24.875 34.5625C24.9479 36.1875 25.3802 37.4531 26.1719 38.3594C26.974 39.2656 28.0573 39.7188 29.4219 39.7188C30.6302 39.7188 31.6354 39.3802 32.4375 38.7031C33.2396 38.0156 33.6406 37.0156 33.6406 35.7031C33.6406 35.1406 33.5156 34.5677 33.2656 33.9844C33.0156 33.3906 32.5781 32.8958 31.9531 32.5C31.3385 32.1042 30.4688 31.9062 29.3438 31.9062H26.9688V28.9531H29.4219C30.5677 28.9531 31.4479 28.6562 32.0625 28.0625C32.6771 27.4583 32.9844 26.7552 32.9844 25.9531C32.9844 25.0781 32.6823 24.3281 32.0781 23.7031C31.474 23.0781 30.5885 22.7656 29.4219 22.7656C28.0885 22.7656 27.0885 23.1406 26.4219 23.8906C25.7656 24.6302 25.3906 25.724 25.2969 27.1719L21.375 26.0625C21.4479 25.0104 21.8229 23.9896 22.5 23C23.1875 22.0104 24.1406 21.1979 25.3594 20.5625C26.5781 19.9271 28.0156 19.6094 29.6719 19.6094C31.0365 19.6094 32.2708 19.849 33.375 20.3281C34.4896 20.8073 35.375 21.4896 36.0312 22.375C36.6979 23.25 37.0312 24.3021 37.0312 25.5312C37.0312 26.2708 36.8802 26.974 36.5781 27.6406C36.276 28.2969 35.8021 28.8594 35.1562 29.3281C34.5208 29.7865 33.6875 30.1042 32.6562 30.2812C34.3021 30.5521 35.5729 31.2031 36.4688 32.2344C37.3646 33.2552 37.8125 34.4688 37.8125 35.875C37.8125 37.0938 37.5781 38.151 37.1094 39.0469C36.651 39.9323 36.026 40.6615 35.2344 41.2344C34.4427 41.7969 33.5521 42.2135 32.5625 42.4844C31.5833 42.7552 30.5677 42.8906 29.5156 42.8906Z" fill="black"/>
</svg>
