<svg width="60" height="61" viewBox="0 0 60 61" fill="none" xmlns="http://www.w3.org/2000/svg">
<circle cx="30" cy="30.5" r="30" fill="white"/>
<path d="M21.0938 42.5V40L29.0625 33.4375C30.0208 32.6354 30.7969 31.8958 31.3906 31.2188C31.9948 30.5417 32.4323 29.8594 32.7031 29.1719C32.9844 28.474 33.125 27.7083 33.125 26.875C33.125 25.9271 32.9635 25.151 32.6406 24.5469C32.3281 23.9427 31.8854 23.5 31.3125 23.2188C30.7396 22.9271 30.0573 22.7812 29.2656 22.7812C28.2448 22.7812 27.4375 22.9948 26.8438 23.4219C26.2604 23.849 25.8333 24.401 25.5625 25.0781C25.2917 25.7448 25.1302 26.4635 25.0781 27.2344L20.9375 26.0625C21.0521 24.9792 21.4688 23.9479 22.1875 22.9688C22.9062 21.9792 23.8698 21.1719 25.0781 20.5469C26.2969 19.9219 27.6927 19.6094 29.2656 19.6094C30.1927 19.6094 31.125 19.7396 32.0625 20C33.0104 20.25 33.8802 20.651 34.6719 21.2031C35.474 21.7552 36.1198 22.474 36.6094 23.3594C37.099 24.2448 37.3438 25.3125 37.3438 26.5625C37.3438 28.3333 36.8177 29.9375 35.7656 31.375C34.7135 32.8125 33.2292 34.2188 31.3125 35.5938L25.5312 39.9062L24.125 39.2188H37.5V42.5H21.0938Z" fill="black"/>
</svg>
