<svg width="24" height="24" viewBox="0 0 24 24" fill="none" xmlns="http://www.w3.org/2000/svg">
<path d="M21.1498 2.85004C19.0498 0.740038 16.2298 1.00004 11.9998 1.00004C8.03979 1.00004 4.99979 0.690038 2.84979 2.85004C0.739794 4.95004 0.999794 7.77004 0.999794 12C0.999794 15.95 0.689794 19 2.84979 21.15C4.94979 23.26 7.76979 23 11.9998 23C15.9598 23 18.9998 23.31 21.1498 21.15C23.2498 19.05 22.9998 16.23 22.9998 12C22.9998 7.69004 23.2398 4.93004 21.1498 2.85004ZM19.7498 19.75C18.3798 21.12 16.5698 21.02 11.9998 21.02C7.70979 21.02 5.65979 21.17 4.24979 19.75C2.80979 18.31 2.97979 16.24 2.97979 12C2.97979 7.77004 2.82979 5.67004 4.24979 4.25004C5.65979 2.84004 7.59979 2.98004 11.9998 2.98004C16.2298 2.98004 18.3298 2.83004 19.7498 4.25004C21.1298 5.63004 21.0198 7.47004 21.0198 12C21.0198 16.24 21.1698 18.34 19.7498 19.75Z" fill="white"/>
<path d="M11.9996 6.35006C10.501 6.35019 9.06383 6.94564 8.00425 8.00541C6.94467 9.06517 6.34948 10.5025 6.34961 12.0011C6.34974 13.4997 6.94519 14.9368 8.00496 15.9964C9.06472 17.056 10.502 17.6512 12.0006 17.6511C13.4992 17.6509 14.9364 17.0555 15.996 15.9957C17.0556 14.9359 17.6507 13.4987 17.6506 12.0001C17.6505 10.5015 17.055 9.06428 15.9953 8.0047C14.9355 6.94512 13.4982 6.34993 11.9996 6.35006ZM11.9996 15.6701C9.97961 15.6701 8.32961 14.0301 8.32961 12.0001C8.32961 9.97006 9.96961 8.33006 11.9996 8.33006C14.0296 8.33006 15.6696 9.97006 15.6696 12.0001C15.6696 14.0201 14.0196 15.6701 11.9996 15.6701ZM17.8696 4.81006C17.1396 4.81006 16.5496 5.40006 16.5496 6.13006C16.5496 6.86006 17.1396 7.45006 17.8696 7.45006C18.5996 7.45006 19.1896 6.86006 19.1896 6.13006C19.1896 5.40006 18.5996 4.81006 17.8696 4.81006Z" fill="white"/>
</svg>
