<svg width="24" height="24" viewBox="0 0 24 24" fill="none" xmlns="http://www.w3.org/2000/svg">
<path d="M21.37 1H2.62C1.73 1 1 1.71 1 2.58V21.41C1 22.29 1.73 23 2.62 23H21.37C22.27 23 23 22.29 23 21.41V2.58C23 1.71 22.27 1 21.37 1ZM7.53 19.75H4.26V9.25H7.53V19.75ZM5.89 7.81C4.85 7.81 4 6.96 4 5.92C4 4.88 4.84 4.03 5.89 4.03C6.93 4.03 7.78 4.88 7.78 5.92C7.79 6.96 6.94 7.81 5.89 7.81ZM19.75 19.75H16.49V14.65C16.49 13.43 16.47 11.87 14.79 11.87C13.09 11.87 12.83 13.2 12.83 14.57V19.76H9.57V9.26H12.7V10.69H12.74C13.18 9.86 14.24 8.99 15.83 8.99C19.13 8.99 19.74 11.16 19.74 13.99V19.75H19.75Z" fill="white"/>
</svg>
