<svg width="152" height="152" viewBox="0 0 152 152" fill="none" xmlns="http://www.w3.org/2000/svg">
<path d="M63.3337 104.5L82.3337 110.833C82.3337 110.833 129.834 101.333 136.167 101.333C142.5 101.333 142.5 107.667 136.167 114C129.834 120.333 107.667 139.333 88.667 139.333C69.667 139.333 57.0003 129.833 44.3337 129.833C31.667 129.833 12.667 129.833 12.667 129.833" stroke="white" stroke-width="5" stroke-linecap="round" stroke-linejoin="round"/>
<path d="M12.667 91.8333C19.0003 85.5 31.667 76 44.3337 76C57.0003 76 87.0837 88.6667 91.8337 95C96.5837 101.333 82.3337 110.833 82.3337 110.833" stroke="white" stroke-width="5" stroke-linecap="round" stroke-linejoin="round"/>
<path d="M50.667 57.0002V31.6668C50.667 28.169 53.5024 25.3335 57.0003 25.3335H133C136.498 25.3335 139.334 28.169 139.334 31.6668V82.3335" stroke="white" stroke-width="5" stroke-linecap="round" stroke-linejoin="round"/>
<path d="M110.834 25.3335H79.167V53.8335H110.834V25.3335Z" fill="white" stroke="white" stroke-width="5" stroke-linecap="round" stroke-linejoin="round"/>
</svg>
