<svg width="152" height="152" viewBox="0 0 152 152" fill="none" xmlns="http://www.w3.org/2000/svg">
<path d="M68.3758 104.5L46.0508 82.1749C46.0508 82.1749 75.4295 12.8487 134.828 16.6249C134.828 16.6249 143.093 71.5349 68.3758 104.5Z" stroke="#22244E" stroke-width="2.8125"/>
<path d="M133 39.9476C127.594 39.0818 122.604 36.5201 118.75 32.6326C114.786 28.6807 112.197 23.5606 111.363 18.0264" stroke="#22244E" stroke-width="2.8125"/>
<path d="M100.51 63.9348C107.698 63.9348 113.525 58.1078 113.525 50.9198C113.525 43.7318 107.698 37.9048 100.51 37.9048C93.3221 37.9048 87.4951 43.7318 87.4951 50.9198C87.4951 58.1078 93.3221 63.9348 100.51 63.9348Z" stroke="#22244E" stroke-width="2.8125"/>
<path d="M72.6988 102.505L71.25 113.62C71.2384 113.719 71.2527 113.819 71.2916 113.91C71.3305 114.002 71.3927 114.081 71.4719 114.141C71.5511 114.201 71.6446 114.24 71.7432 114.252C71.8418 114.265 71.9419 114.252 72.0338 114.214L91.0338 105.973C91.812 105.615 92.4962 105.082 93.0322 104.414C93.5681 103.746 93.941 102.962 94.1213 102.125L97.0188 88.2788" stroke="#22244E" stroke-width="2.8125"/>
<path d="M47.5003 79.0637L36.3615 80.4887C36.2658 80.5009 36.1685 80.4875 36.0796 80.4499C35.9906 80.4123 35.9133 80.3518 35.8553 80.2746C35.7974 80.1973 35.761 80.1061 35.7498 80.0102C35.7386 79.9143 35.753 79.8172 35.7915 79.7287L44.009 60.8474C44.3645 60.0341 44.9105 59.3181 45.6008 58.7601C46.2911 58.2021 47.1055 57.8183 47.9753 57.6412L61.7978 54.7437" stroke="#22244E" stroke-width="2.8125"/>
<path d="M51.0392 87.1152C35.483 92.1027 34.6992 116.731 34.6992 116.731C34.6992 116.731 58.6392 116.993 64.6005 100.676" stroke="#22244E" stroke-width="2.8125"/>
<path d="M25.8402 125.447L16.9102 134.401" stroke="#22244E" stroke-width="2.8125" stroke-linecap="round"/>
<path d="M25.1749 108.371L17.5986 115.924" stroke="#22244E" stroke-width="2.8125" stroke-linecap="round"/>
<path d="M42.6072 126.136L35.0547 133.712" stroke="#22244E" stroke-width="2.8125" stroke-linecap="round"/>
</svg>
