<svg width="152" height="152" viewBox="0 0 152 152" fill="none" xmlns="http://www.w3.org/2000/svg">
<g clip-path="url(#clip0_1831_3627)">
<path d="M7.4548 101.586C5.31606 103.723 4.11396 106.625 4.11396 109.647C4.11396 112.67 5.31606 115.572 7.4548 117.708L11.0287 121.283L1.03334 131.273C-0.333703 132.646 -0.339561 134.866 1.03334 136.234L15.7702 150.976C16.426 151.632 17.3213 151.999 18.2499 151.999C19.1804 151.999 20.0757 151.632 20.7315 150.97L30.7207 140.98L34.2801 144.539C36.4173 146.676 39.321 147.878 42.3415 147.878C45.3642 147.878 48.2666 146.676 50.4044 144.539L68.2074 126.734L25.2538 83.7915L7.4548 101.586Z" fill="white"/>
<path d="M150.965 15.7715L136.228 1.02967C134.857 -0.343225 132.629 -0.343225 131.263 1.02967L121.276 11.0152L117.712 7.45545C113.259 3.00193 106.047 3.00193 101.589 7.45113L83.791 25.2544L126.739 68.2093L144.544 50.405C148.992 45.9515 148.992 38.734 144.538 34.2817L140.98 30.7167L150.965 20.7315C152.337 19.3599 152.337 17.1388 150.965 15.7715Z" fill="white"/>
<path d="M78.5665 30.4791C75.5839 27.4965 70.7521 27.4965 67.7701 30.4791C64.7876 33.4617 64.7876 38.2929 67.7701 41.2755L110.72 84.2251C112.212 85.7161 114.164 86.4615 116.117 86.4615C118.071 86.4615 120.024 85.7161 121.516 84.2251C124.499 81.2425 124.499 76.4113 121.516 73.4287L78.5665 30.4791Z" fill="white"/>
<path d="M79.0825 84.2791L68.4357 94.9348L57.0634 83.5626L67.7161 72.9102C70.6987 69.9335 70.6987 65.0979 67.7161 62.1154C64.7332 59.1328 59.902 59.1328 56.9194 62.1154L46.2683 72.7662L41.2721 67.7716C38.2902 64.789 33.4584 64.789 30.4758 67.7716C27.4951 70.7542 27.4951 75.5854 30.4758 78.5667L40.8541 88.9447C40.8602 88.9506 40.8602 88.9555 40.8652 88.9601C40.8698 88.9663 40.8747 88.9663 40.8794 88.9694L73.4254 121.515C74.917 123.007 76.8698 123.752 78.8242 123.752C80.777 123.752 82.7311 123.008 84.222 121.515C87.2049 118.533 87.2049 113.703 84.222 110.72L79.2311 105.729L89.878 95.0736C92.8605 92.091 92.8605 87.2542 89.878 84.2772C86.8963 81.2965 82.0556 81.2965 79.0825 84.2791Z" fill="white"/>
</g>
<defs>
<clipPath id="clip0_1831_3627">
<rect width="152" height="152" fill="white"/>
</clipPath>
</defs>
</svg>
