<svg width="60" height="60" viewBox="0 0 60 60" fill="none" xmlns="http://www.w3.org/2000/svg">
<rect width="60" height="60" rx="8" fill="#22244E"/>
<path d="M30.5156 42.3906C28.9948 42.3906 27.6042 42.1146 26.3438 41.5625C25.0833 41.0104 24.0521 40.2031 23.25 39.1406C22.4583 38.0677 22.0052 36.7708 21.8906 35.25L25.875 34.0625C25.9479 35.6875 26.3802 36.9531 27.1719 37.8594C27.974 38.7656 29.0573 39.2188 30.4219 39.2188C31.6302 39.2188 32.6354 38.8802 33.4375 38.2031C34.2396 37.5156 34.6406 36.5156 34.6406 35.2031C34.6406 34.6406 34.5156 34.0677 34.2656 33.4844C34.0156 32.8906 33.5781 32.3958 32.9531 32C32.3385 31.6042 31.4688 31.4062 30.3438 31.4062H27.9688V28.4531H30.4219C31.5677 28.4531 32.4479 28.1562 33.0625 27.5625C33.6771 26.9583 33.9844 26.2552 33.9844 25.4531C33.9844 24.5781 33.6823 23.8281 33.0781 23.2031C32.474 22.5781 31.5885 22.2656 30.4219 22.2656C29.0885 22.2656 28.0885 22.6406 27.4219 23.3906C26.7656 24.1302 26.3906 25.224 26.2969 26.6719L22.375 25.5625C22.4479 24.5104 22.8229 23.4896 23.5 22.5C24.1875 21.5104 25.1406 20.6979 26.3594 20.0625C27.5781 19.4271 29.0156 19.1094 30.6719 19.1094C32.0365 19.1094 33.2708 19.349 34.375 19.8281C35.4896 20.3073 36.375 20.9896 37.0312 21.875C37.6979 22.75 38.0312 23.8021 38.0312 25.0312C38.0312 25.7708 37.8802 26.474 37.5781 27.1406C37.276 27.7969 36.8021 28.3594 36.1562 28.8281C35.5208 29.2865 34.6875 29.6042 33.6562 29.7812C35.3021 30.0521 36.5729 30.7031 37.4688 31.7344C38.3646 32.7552 38.8125 33.9688 38.8125 35.375C38.8125 36.5938 38.5781 37.651 38.1094 38.5469C37.651 39.4323 37.026 40.1615 36.2344 40.7344C35.4427 41.2969 34.5521 41.7135 33.5625 41.9844C32.5833 42.2552 31.5677 42.3906 30.5156 42.3906Z" fill="white"/>
</svg>
