<svg width="60" height="60" viewBox="0 0 60 60" fill="none" xmlns="http://www.w3.org/2000/svg">
<rect width="60" height="60" rx="8" fill="#22244E"/>
<path d="M22.0938 42V39.5L30.0625 32.9375C31.0208 32.1354 31.7969 31.3958 32.3906 30.7188C32.9948 30.0417 33.4323 29.3594 33.7031 28.6719C33.9844 27.974 34.125 27.2083 34.125 26.375C34.125 25.4271 33.9635 24.651 33.6406 24.0469C33.3281 23.4427 32.8854 23 32.3125 22.7188C31.7396 22.4271 31.0573 22.2812 30.2656 22.2812C29.2448 22.2812 28.4375 22.4948 27.8438 22.9219C27.2604 23.349 26.8333 23.901 26.5625 24.5781C26.2917 25.2448 26.1302 25.9635 26.0781 26.7344L21.9375 25.5625C22.0521 24.4792 22.4688 23.4479 23.1875 22.4688C23.9062 21.4792 24.8698 20.6719 26.0781 20.0469C27.2969 19.4219 28.6927 19.1094 30.2656 19.1094C31.1927 19.1094 32.125 19.2396 33.0625 19.5C34.0104 19.75 34.8802 20.151 35.6719 20.7031C36.474 21.2552 37.1198 21.974 37.6094 22.8594C38.099 23.7448 38.3438 24.8125 38.3438 26.0625C38.3438 27.8333 37.8177 29.4375 36.7656 30.875C35.7135 32.3125 34.2292 33.7188 32.3125 35.0938L26.5312 39.4062L25.125 38.7188H38.5V42H22.0938Z" fill="white"/>
</svg>
