<svg width="68" height="50" viewBox="0 0 68 50" fill="none" xmlns="http://www.w3.org/2000/svg">
<g clip-path="url(#clip0_2462_22041)">
<path d="M18.0622 37.24C18.7138 37.8502 19.042 38.7185 19.042 39.8355C19.042 40.2532 19.0096 40.624 18.9449 40.9479L17.8311 47.2934H15.1597L16.1996 41.3186C16.2366 41.084 16.255 40.8587 16.255 40.6334C16.255 40.0092 16.084 39.5304 15.7466 39.1972C15.4093 38.864 14.924 38.6997 14.2954 38.6997C13.5513 38.6997 12.9227 38.925 12.4097 39.3709C11.8967 39.8214 11.5778 40.4691 11.4484 41.3139V41.2952L10.39 47.2887H7.71857L8.75848 41.3139C8.79545 41.0793 8.81394 40.8587 8.81394 40.6522C8.81394 40.0139 8.64293 39.5304 8.2963 39.1972C7.94966 38.864 7.46437 38.6997 6.83581 38.6997C6.12867 38.6997 5.52322 38.9109 5.01944 39.3333C4.51566 39.7557 4.18289 40.3565 4.03037 41.1403L2.95349 47.2887H0.245117L1.65477 39.1831C1.92745 37.6155 3.26778 36.475 4.83457 36.475L4.60348 37.7657C5.02406 37.3245 5.53246 36.9725 6.11943 36.7097C6.7064 36.4468 7.33034 36.3201 7.98201 36.3201C8.81394 36.3201 9.5257 36.4985 10.1173 36.8552C10.7089 37.2119 11.1248 37.7235 11.3652 38.3852C11.8135 37.761 12.4005 37.2588 13.1261 36.8833C13.8517 36.5079 14.6004 36.3154 15.3861 36.3154C16.5139 36.3154 17.4059 36.6205 18.0575 37.2307L18.0622 37.24Z" fill="white"/>
<path d="M22.7434 46.9046C22.0455 46.5291 21.5048 45.9941 21.1212 45.3042C20.7376 44.6142 20.5435 43.821 20.5435 42.9246C20.5435 41.6996 20.83 40.5872 21.3985 39.5782C21.967 38.5691 22.7481 37.7712 23.7417 37.1892C24.7354 36.6025 25.84 36.3115 27.0556 36.3115C27.9661 36.3115 28.7749 36.504 29.4866 36.8888C30.1984 37.2737 30.7484 37.8087 31.1412 38.4987C31.5341 39.1886 31.7282 39.9818 31.7282 40.8782C31.7282 42.1126 31.4417 43.2344 30.8639 44.2341C30.2862 45.2385 29.4959 46.0269 28.4883 46.6042C27.4808 47.1815 26.3716 47.4725 25.1514 47.4725C24.2409 47.4725 23.4367 47.2848 22.7388 46.9046H22.7434ZM27.2682 44.5579C27.7951 44.1824 28.2018 43.6802 28.4976 43.056C28.7934 42.4318 28.9413 41.7747 28.9413 41.0848C28.9413 40.3056 28.7287 39.7002 28.2988 39.2778C27.869 38.8554 27.3283 38.6442 26.672 38.6442C26.0157 38.6442 25.4379 38.8319 24.9342 39.2121C24.4304 39.5875 24.0329 40.0944 23.751 40.7234C23.4691 41.3523 23.3258 42.0234 23.3258 42.7228C23.3258 43.4925 23.5291 44.0839 23.9312 44.4969C24.3333 44.9146 24.8648 45.1211 25.5165 45.1211C26.1682 45.1211 26.7413 44.9334 27.2636 44.5532L27.2682 44.5579Z" fill="white"/>
<path d="M37.5337 44.7738L41.6656 36.4805H44.5681L38.7447 47.2942H35.4401L33.4019 36.4805H36.2859L37.5337 44.7738Z" fill="white"/>
<path d="M49.0464 44.7738L53.1783 36.4805H56.0808L50.2574 47.2942H46.9528L44.9146 36.4805H47.7986L49.0464 44.7738Z" fill="white"/>
<path d="M57.0889 38.9395C57.6574 38.0947 58.3553 37.4423 59.1733 36.987C59.9914 36.5317 60.8603 36.3018 61.7662 36.3018C62.5611 36.3018 63.2313 36.466 63.7766 36.7899C64.322 37.1137 64.7195 37.5267 64.9783 38.0196L65.0107 37.921C65.3157 37.0527 66.1199 36.4754 67.0258 36.4754H68.2274L66.0737 47.2891H64.0817C63.7119 47.2891 63.4393 46.9418 63.5132 46.5757L63.7397 45.515C63.3191 46.0219 62.6813 46.6367 62.0065 46.9653C61.3363 47.2985 60.6015 47.4628 59.8065 47.4628C59.0116 47.4628 58.3322 47.2844 57.7313 46.9277C57.1305 46.571 56.6637 46.0641 56.3263 45.407C55.9935 44.75 55.8271 43.9849 55.8271 43.1119C55.8271 42.7083 55.8641 42.2859 55.9427 41.8447C56.1368 40.7511 56.5158 39.7843 57.0843 38.9348L57.0889 38.9395ZM64.3821 41.1454C64.3821 40.3757 64.1603 39.7796 63.7212 39.3478C63.2775 38.9207 62.7229 38.7048 62.0573 38.7048C61.5582 38.7048 61.0729 38.8268 60.6061 39.0756C60.1393 39.3243 59.7326 39.6857 59.3859 40.1598C59.0393 40.6338 58.8082 41.197 58.6927 41.8494C58.6557 42.0982 58.6372 42.3328 58.6372 42.5534C58.6372 43.3325 58.8544 43.9474 59.2889 44.3979C59.7233 44.8485 60.2733 45.0691 60.9435 45.0691C61.4426 45.0691 61.9279 44.9424 62.404 44.6889C62.8754 44.4355 63.2867 44.0694 63.6241 43.586C63.9615 43.1026 64.1926 42.5393 64.3082 41.887C64.359 41.549 64.3867 41.3003 64.3867 41.1454H64.3821Z" fill="white"/>
<path d="M30.5921 24.8694H30.4811C30.4071 24.8694 30.3377 24.86 30.2776 24.86C30.2591 24.86 30.2267 24.8506 30.2036 24.8506C30.3285 24.86 30.4626 24.8694 30.5921 24.8694Z" fill="#3366FF"/>
<path d="M34.608 9.04773V25.2026C34.608 26.2586 34.206 27.202 33.5497 27.9013C33.4434 28.0186 33.3232 28.1219 33.2076 28.2204C33.1198 28.3002 33.032 28.3612 32.9442 28.4176C32.8934 28.4551 32.8379 28.4973 32.7871 28.5255C32.6992 28.5771 32.6114 28.6241 32.5236 28.6757C32.2879 28.8071 32.043 28.9057 31.7795 28.9667C31.6917 28.9949 31.5946 29.0277 31.493 29.0371C31.3867 29.0653 31.2665 29.0887 31.1509 29.0981C31.0215 29.1075 30.8967 29.1169 30.7581 29.1169C30.6287 29.1169 30.5039 29.1075 30.3837 29.0981C30.2451 29.0887 30.111 29.0699 29.9816 29.0371C29.8522 29.0042 29.7274 28.9761 29.6073 28.9385C29.4316 28.8869 29.2652 28.8212 29.1081 28.7414C29.0295 28.7039 28.951 28.6616 28.8724 28.6241C28.6783 28.5161 28.4795 28.3753 28.3039 28.2251L28.0959 28.0468C28.0174 27.967 27.9388 27.8872 27.8695 27.8074C27.7816 27.7088 27.6938 27.5962 27.6153 27.4883C27.5367 27.3803 27.4674 27.2583 27.398 27.1409C27.301 26.972 27.2132 26.7936 27.1531 26.6153C27.1161 26.5073 27.0745 26.3947 27.0468 26.2867C26.9405 25.9488 26.8896 25.578 26.8896 25.2119V18.5191L17.5721 27.9811C16.8187 28.7461 15.8343 29.1263 14.8452 29.1263C13.8562 29.1263 12.8763 28.7461 12.1184 27.9811C10.607 26.4463 10.607 23.9682 12.1184 22.4428L27.8741 6.43817L28.0312 6.2786C28.2161 6.09086 28.4241 5.90781 28.6505 5.76232C28.7384 5.7013 28.8354 5.65437 28.9371 5.59335C29.1821 5.46194 29.4455 5.35399 29.7136 5.28359C29.732 5.2742 29.7413 5.2742 29.7644 5.2742C29.8152 5.25542 29.8707 5.23665 29.9215 5.22257C29.9493 5.21318 29.9909 5.21318 30.0186 5.2038C30.1157 5.18502 30.2127 5.17564 30.3144 5.16625C30.3329 5.15686 30.3652 5.15686 30.393 5.15686C30.6379 5.1287 30.8829 5.1287 31.1371 5.15686C31.2665 5.16625 31.382 5.17564 31.5114 5.20849C31.5392 5.21788 31.5715 5.21788 31.5993 5.22726C31.8165 5.27889 32.0291 5.33521 32.2371 5.42439C32.3249 5.46194 32.4219 5.50418 32.5005 5.55581C32.5883 5.59335 32.6761 5.64498 32.7547 5.69661C32.9118 5.79517 33.069 5.90781 33.2169 6.02515C33.2261 6.02515 33.2354 6.03454 33.2446 6.05331C33.3232 6.11432 33.4018 6.19411 33.4803 6.2739C33.5173 6.30206 33.5589 6.35369 33.5959 6.40532C33.6144 6.42409 33.6467 6.44287 33.6652 6.47572C33.8408 6.67284 33.9887 6.89344 34.1181 7.1328C34.169 7.2032 34.1967 7.2736 34.2337 7.35339C34.2337 7.36278 34.2429 7.36278 34.2429 7.37217C34.2707 7.43318 34.2938 7.4895 34.3215 7.55052C34.3307 7.57868 34.34 7.61153 34.3492 7.63969C34.3862 7.73826 34.4278 7.83682 34.4555 7.94946C34.4833 8.04802 34.5156 8.16067 34.5341 8.26861C34.5433 8.32963 34.5618 8.40003 34.5711 8.46574C34.5896 8.66286 34.608 8.85529 34.608 9.05242V9.04773Z" fill="white"/>
<path d="M57.482 14.0363C57.482 14.0363 57.482 13.9988 57.482 13.98C57.482 9.07536 53.5535 5.08594 48.7237 5.08594C43.8939 5.08594 39.9793 9.06598 39.9654 13.9565C39.9608 14.0504 39.9515 14.3085 39.9978 14.7403C40.0948 15.909 40.4137 17.0307 40.9452 18.068C41.3889 19.1193 42.757 21.2314 45.017 24.3525C45.9137 25.5916 46.7548 26.7086 47.3002 27.4314C47.6052 27.835 47.8548 28.1636 48.0351 28.3936C48.4141 28.8864 48.4372 28.9145 48.6452 28.9521L48.7422 28.9709L48.8393 28.9521C49.0473 28.9145 49.0611 28.8911 49.4493 28.3842C49.6296 28.1495 49.8838 27.8163 50.1888 27.4079C50.7388 26.6758 51.5892 25.5353 52.4905 24.2774C54.7737 21.1093 56.1463 18.9691 56.5762 17.9131C57.0661 16.904 57.3619 15.8151 57.4497 14.684C57.482 14.3883 57.482 14.1771 57.4774 14.0504V14.041L57.482 14.0363ZM48.7237 17.0261C46.9166 17.0261 45.4515 15.5335 45.4515 13.7031C45.4515 11.8727 46.9212 10.3801 48.7237 10.3801C50.5262 10.3801 51.996 11.8727 51.996 13.7031C51.996 15.5335 50.5262 17.0261 48.7237 17.0261Z" fill="white"/>
<path d="M39.9695 13.9616C39.9649 14.0554 39.951 14.3136 40.0065 14.7407C40.1035 15.9093 40.4224 17.0264 40.9493 18.0636C41.0556 18.303 41.2081 18.6081 41.4069 18.9554C41.4346 19.0258 41.4808 19.0915 41.5224 19.1619C41.5964 19.2933 41.6796 19.4247 41.7581 19.5655L33.5498 27.8917C34.2107 27.1971 34.6128 26.2537 34.6128 25.1977V15.7357H34.6174L36.8405 13.4781L42.1602 8.07129C42.1001 8.137 42.0632 8.2074 42.0077 8.27311C40.7413 9.81725 39.9741 11.7979 39.9649 13.9569L39.9695 13.9616Z" fill="#3366FF"/>
</g>
<defs>
<clipPath id="clip0_2462_22041">
<rect width="68" height="50" fill="white"/>
</clipPath>
</defs>
</svg>
